<svg id="Camada_1" data-name="Camada 1" xmlns="http://www.w3.org/2000/svg" viewBox="0 0 66.66 98.14"><defs><style>.cls-1{fill:#636363;}</style></defs><title>Favicon</title><g id="Logo_2" data-name="Logo 2"><path id="G" class="cls-1" d="M35.39,66.66a40.48,40.48,0,0,1-14.54-2.48,32.73,32.73,0,0,1-11.19-7A30.64,30.64,0,0,1,2.49,46.55,35,35,0,0,1,0,33.24,32.75,32.75,0,0,1,2.63,20.07,31.24,31.24,0,0,1,10.14,9.53a34.59,34.59,0,0,1,11.52-7A41,41,0,0,1,36.15,0,38.57,38.57,0,0,1,46.62,1.39a36.72,36.72,0,0,1,9,3.77,29,29,0,0,1,6.76,5.52l-9.85,10a27.89,27.89,0,0,0-4.9-3.61,25.39,25.39,0,0,0-5.4-2.35,21.16,21.16,0,0,0-6.12-.87,19.48,19.48,0,0,0-7.73,1.44,18.92,18.92,0,0,0-6.12,4.1,18.19,18.19,0,0,0-4.07,6.16,20.26,20.26,0,0,0-1.43,7.69A19.58,19.58,0,0,0,18.24,41a19.08,19.08,0,0,0,4.21,6.21,19.57,19.57,0,0,0,6.36,4.14,20.33,20.33,0,0,0,7.89,1.52,16.58,16.58,0,0,0,5.63-.92,14.67,14.67,0,0,0,4.54-2.48,12,12,0,0,0,3.06-3.73,9.78,9.78,0,0,0,1.14-4.65v-2.4l2.11,3.14H34.72V29.56H66.18a23.27,23.27,0,0,1,.29,2.76c.06,1.17.11,2.3.14,3.41s0,1.93,0,2.48a27.6,27.6,0,0,1-2.28,11.47,26.77,26.77,0,0,1-6.55,9,30.47,30.47,0,0,1-10,5.9A35.8,35.8,0,0,1,35.39,66.66Z" transform="translate(0 0)"/><rect class="cls-1" y="82.4" width="66.66" height="15.74"/></g></svg>