<svg id="Camada_1" data-name="Camada 1" xmlns="http://www.w3.org/2000/svg" viewBox="0 0 36.8 36.79"><defs><style>.cls-1{fill:#282828;}</style></defs><title>githubblack</title><g id="github"><path class="cls-1" d="M29.8,0H7A7,7,0,0,0,0,7V29.8a7,7,0,0,0,7,7H29.8a7,7,0,0,0,7-7V7A7,7,0,0,0,29.8,0ZM27,28.55A12.7,12.7,0,0,1,22.8,31a1,1,0,0,1-1.31-.54,1,1,0,0,1-.07-.46v-2.2a21.49,21.49,0,0,0-.06-2.54.67.67,0,0,1,0-.2c0-.21-.26-.41-.12-.57s.38-.1.57-.14a9.06,9.06,0,0,0,3-1.23A5.56,5.56,0,0,0,27.36,19a6.41,6.41,0,0,0-1.14-4.65A1.22,1.22,0,0,1,26,13a3.78,3.78,0,0,0-.29-2.89.51.51,0,0,0-.58-.3,5.33,5.33,0,0,0-3.25,1.53.43.43,0,0,1-.49.11,10.64,10.64,0,0,0-5.92,0,.35.35,0,0,1-.41-.09,5.49,5.49,0,0,0-3.31-1.58.5.5,0,0,0-.56.28,3.86,3.86,0,0,0-.09,3.38.32.32,0,0,1-.06.41,6.37,6.37,0,0,0-1.43,5.95A5.74,5.74,0,0,0,13,23.72a9.92,9.92,0,0,0,2.49.8c.14,0,.28,0,.19.24A3.16,3.16,0,0,0,15.44,26a.33.33,0,0,1-.28.38h0A3.41,3.41,0,0,1,11.37,25a2.35,2.35,0,0,0-1.93-1.18c-.2,0-.47,0-.55.2s.15.32.3.42a4.12,4.12,0,0,1,1.36,1.78,3.55,3.55,0,0,0,2.86,2.14,4.85,4.85,0,0,0,1.7,0c.25-.05.35,0,.33.26v1.59a1,1,0,0,1-1.12.87A1.19,1.19,0,0,1,14,31a12.83,12.83,0,0,1-8.19-8.93,12.28,12.28,0,0,1,.9-9A12.47,12.47,0,0,1,14.5,6.46,12.6,12.6,0,0,1,27.35,9.4a12.25,12.25,0,0,1,4,9.17A12.68,12.68,0,0,1,27,28.55Z" transform="translate(0 -0.01)"/></g></svg>