<svg id="Camada_1" data-name="Camada 1" xmlns="http://www.w3.org/2000/svg" viewBox="0 0 36.82 36.8"><defs><style>.cls-1{fill:#f5f5f7;}</style></defs><title>github</title><g id="github"><path class="cls-1" d="M28.21.59H9.79a9.2,9.2,0,0,0-9.2,9.2v18.4a9.2,9.2,0,0,0,9.2,9.2H28.21a9.2,9.2,0,0,0,9.2-9.2V9.79A9.2,9.2,0,0,0,28.21.59Zm-.59,28.54a12.75,12.75,0,0,1-4.21,2.49,1,1,0,0,1-1.4-1c0-.73,0-1.46,0-2.2s0-1.69-.07-2.54c0-.06,0-.13,0-.2s-.25-.41-.12-.57.37-.1.58-.14a9.1,9.1,0,0,0,2.95-1.21,5.54,5.54,0,0,0,2.61-4.26,6.36,6.36,0,0,0-1.12-4.65,1.22,1.22,0,0,1-.28-1.26,3.77,3.77,0,0,0-.27-2.9.51.51,0,0,0-.6-.28A5.35,5.35,0,0,0,22.42,12a.43.43,0,0,1-.48.12,10.86,10.86,0,0,0-5.93,0A.32.32,0,0,1,15.6,12a5.33,5.33,0,0,0-3.29-1.56.45.45,0,0,0-.55.28,3.75,3.75,0,0,0-.12,3.36.31.31,0,0,1,0,.41,6.38,6.38,0,0,0-1.4,5.89,5.77,5.77,0,0,0,3.36,3.91,10.56,10.56,0,0,0,2.5.8c.14,0,.27,0,.18.23a3.22,3.22,0,0,0-.2,1.3.33.33,0,0,1-.3.37A3.4,3.4,0,0,1,12,25.65,2.34,2.34,0,0,0,10,24.46c-.21,0-.48,0-.55.21s.14.32.3.43a3.86,3.86,0,0,1,1.35,1.76A3.55,3.55,0,0,0,14,29a4.57,4.57,0,0,0,1.69,0c.25,0,.37,0,.35.25a14.4,14.4,0,0,1,0,1.6,1,1,0,0,1-1.37.8,12.89,12.89,0,0,1-8.2-8.92,12.38,12.38,0,0,1,.92-9A12.37,12.37,0,0,1,15.1,7,12.62,12.62,0,0,1,27.94,10a12.27,12.27,0,0,1,4,9.18A12.71,12.71,0,0,1,27.62,29.13Z" transform="translate(-0.59 -0.59)"/></g></svg>