<svg id="Camada_1" data-name="Camada 1" xmlns="http://www.w3.org/2000/svg" viewBox="0 0 98.66 98.66"><defs><style>.cls-1{fill:#f8faff;}.cls-2{fill:#e44d26;}.cls-3{fill:#379ad6;}</style></defs><title>iconHtmlCss</title><circle class="cls-1" cx="49.33" cy="49.33" r="49.33"/><g id="HTML"><path class="cls-2" d="M81,39.44c-.07.83-.14,1.64-.21,2.44l-.33,3.68c-.15,1.62-.3,3.23-.44,4.85-.12,1.39-.25,2.78-.37,4.17-.14,1.61-.29,3.22-.43,4.83-.11,1.2-.22,2.4-.32,3.6-.05.56-.11,1.13-.15,1.7,0,.18-.15.18-.26.21l-4.71,1.31-5,1.39a.72.72,0,0,1-.41,0L58.6,64.93a.33.33,0,0,1-.29-.35q-.29-3.37-.59-6.75c-.24-2.63-.47-5.26-.71-7.9s-.46-5.26-.7-7.9c-.08-.85-.16-1.71-.24-2.59ZM61.69,55.64v.09c.14,1.52.29,3,.43,4.55a.31.31,0,0,0,.28.31c2,.53,3.95,1.07,5.93,1.59a.9.9,0,0,0,.46,0L74.6,60.6a.35.35,0,0,0,.31-.38c.1-1.34.21-2.67.32-4,.14-1.71.29-3.41.43-5.12,0-.06,0-.11,0-.19H64.41l-.34-3.13H76l.25-3.18H60.69l.87,9.47h10.8c0,.22,0,.41,0,.6l-.27,3.18a.29.29,0,0,1-.24.29c-1,.28-2.08.58-3.11.87a.51.51,0,0,1-.27,0c-1.08-.3-2.16-.61-3.23-.93a.29.29,0,0,1-.18-.21c0-.37-.08-.73-.11-1.1s-.09-.76-.13-1.14Z" transform="translate(-0.34 -0.74)"/><path class="cls-2" d="M74.11,37.29H72.66c-.18,0-.15-.13-.15-.23V35.33a.56.56,0,0,0-.05-.27l-1,1.59L70.37,35c0,.14,0,.21,0,.29v1.76c0,.17,0,.24-.22.23H68.79V32.51h1.55a.33.33,0,0,1,.19.16c.31.48.6,1,.92,1.49.29-.49.59-1,.86-1.43a.38.38,0,0,1,.4-.23c.46,0,.92,0,1.4,0Z" transform="translate(-0.34 -0.74)"/><path class="cls-2" d="M58.4,37.27c0-.09,0-.16,0-.23,0-1.43,0-2.85,0-4.27,0-.21.06-.28.27-.27.44,0,.88,0,1.35,0v1.54h1.42V32.52H63v4.75H61.44V35.71H60v1.56Z" transform="translate(-0.34 -0.74)"/><path class="cls-2" d="M63.71,32.52h4.37v1.59H66.71v3.16H65.1V34.12H63.71Z" transform="translate(-0.34 -0.74)"/><path class="cls-2" d="M74.9,32.52h1.59v3.16h2c.15,0,.22,0,.22.21,0,.41,0,.81,0,1.21,0,.11,0,.2-.16.2H74.9Z" transform="translate(-0.34 -0.74)"/></g><g id="CSS"><path class="cls-3" d="M30.83,39.38H43c.33,0,.33,0,.31.3-.17,1.78-.33,3.56-.5,5.34s-.31,3.45-.47,5.17l-.48,5.19L41.41,60,41,64.53a.25.25,0,0,1-.21.25L31,67.42a.58.58,0,0,1-.32,0l-9.76-2.62c-.16-.05-.22-.12-.23-.27l-.42-4.62c-.14-1.53-.29-3.07-.43-4.61-.13-1.36-.25-2.72-.37-4.09-.15-1.54-.29-3.09-.43-4.63-.13-1.36-.25-2.71-.38-4.06-.09-1-.16-1.93-.27-2.89,0-.24.06-.25.25-.25H30.83Zm.06,11.35v0l.95-.4,6.27-2.66c.1,0,.22-.06.23-.22.06-.91.13-1.81.2-2.72,0-.18,0-.22-.21-.22l-15.19,0c-.23,0-.24.08-.22.26.14.86.27,1.72.38,2.59,0,.2.09.26.29.26L30,47.54h1.09c0,.05,0,.05-.07.07l-7.21,3a.26.26,0,0,0-.19.32c.07.85.13,1.7.17,2.56,0,.23.08.29.3.28H34.34c.23,0,.28.07.26.29-.09,1.18-.16,2.36-.23,3.54a.26.26,0,0,1-.22.27l-3.06.92a.74.74,0,0,1-.39,0L27.62,58a.3.3,0,0,1-.27-.32c0-.66-.1-1.33-.15-2,0-.12,0-.17-.18-.17H24.25c-.13,0-.17,0-.15.17.12,1.45.25,2.89.36,4.34,0,.19.09.25.25.3L30.63,62A.59.59,0,0,0,31,62l6-1.67a.29.29,0,0,0,.25-.31c.08-1.11.17-2.22.27-3.34.16-1.9.31-3.81.48-5.72,0-.23-.05-.27-.26-.27H30.89Z" transform="translate(-0.34 -0.74)"/><path class="cls-3" d="M36.81,34.14l1.29,1.37a.44.44,0,0,1,.14.33c0,.36,0,.73,0,1.1,0,.16,0,.22-.21.22H34.58c-.15,0-.21,0-.2-.2,0-.37,0-.75,0-1.13,0-.14,0-.19.19-.18h1.27c0-.11-.06-.13-.1-.18l-1.22-1.2a.35.35,0,0,1-.14-.27V32.66c0-.15,0-.18.19-.18,1.16,0,2.32,0,3.47,0,.14,0,.2,0,.2.18,0,.43,0,.87,0,1.31,0,.15-.07.17-.2.17Z" transform="translate(-0.34 -0.74)"/><path class="cls-3" d="M31.32,34.14c.43.44.84.89,1.27,1.32a.55.55,0,0,1,.19.46c0,.35,0,.69,0,1,0,.15,0,.21-.19.21H29.11c-.15,0-.2,0-.2-.2,0-.37,0-.75,0-1.13,0-.15.05-.19.19-.18h1.28c0-.1-.06-.13-.1-.17-.41-.41-.82-.82-1.24-1.22a.37.37,0,0,1-.13-.28c0-.44,0-.87,0-1.31,0-.14,0-.19.18-.19,1.17,0,2.34,0,3.5,0,.15,0,.19.05.19.19,0,.43,0,.85,0,1.28,0,.17-.06.2-.21.19Z" transform="translate(-0.34 -0.74)"/><path class="cls-3" d="M23.42,34.8c0-.7,0-1.39,0-2.09,0-.17,0-.23.22-.23,1.15,0,2.29,0,3.43,0,.16,0,.22,0,.22.21q0,.63,0,1.26c0,.16-.06.2-.21.19H25.28c-.16,0-.22,0-.21.2q0,.55,0,1.11c0,.16,0,.2.2.2H27c.18,0,.26,0,.25.23,0,.36,0,.72,0,1.08,0,.16-.06.2-.21.2H23.62c-.17,0-.21-.06-.2-.22Z" transform="translate(-0.34 -0.74)"/></g></svg>