<svg id="Camada_1" data-name="Camada 1" xmlns="http://www.w3.org/2000/svg" viewBox="0 0 98.66 98.66"><defs><style>.cls-1{fill:#f8faff;}.cls-2{fill:#f7e018;}</style></defs><title>iconJs</title><circle class="cls-1" cx="49.33" cy="49.33" r="49.33"/><path class="cls-2" d="M72.72,38l-5.55,3.56c-.35-.49-.65-1-1-1.38a4.42,4.42,0,0,0-4.75-1.53A3.09,3.09,0,0,0,60,43.8a9.16,9.16,0,0,0,2.83,1.74c2.11,1,4.23,2,6.32,3a12.16,12.16,0,0,1,2.09,1.41,9.28,9.28,0,0,1,3.64,7.2,9.47,9.47,0,0,1-2.59,7.51,10.24,10.24,0,0,1-5.17,2.8,16.55,16.55,0,0,1-12.27-1.53A12.42,12.42,0,0,1,50,61a3.42,3.42,0,0,1-.19-.42l5.83-3.39c.33.46.63.89.94,1.31A7.5,7.5,0,0,0,65,61.18a3.32,3.32,0,0,0,2.47-2.24,3.15,3.15,0,0,0-.88-3.36,12.11,12.11,0,0,0-3.28-1.9c-2-1-4.07-1.81-6-2.87a9.39,9.39,0,0,1-4.82-5.72c-.9-3.2-.71-6.28,1.34-9A9.44,9.44,0,0,1,60,32.41a13,13,0,0,1,8.19.93,10.53,10.53,0,0,1,4.5,4.46A.5.5,0,0,1,72.72,38Z" transform="translate(-0.34 -0.74)"/><path class="cls-2" d="M24.47,61.35l5.87-3.56.31.49c.4.59.77,1.21,1.21,1.77A4.35,4.35,0,0,0,37,61.12a2.94,2.94,0,0,0,1.69-2.54,13.13,13.13,0,0,0,.12-2q0-11.67,0-23.33c0-.69,0-.69.7-.69,2,0,4,0,6.06,0,.4,0,.51.12.51.51,0,8.1,0,16.19,0,24.29a13.05,13.05,0,0,1-.78,4.58,8.43,8.43,0,0,1-5.53,5.32A13.66,13.66,0,0,1,30.1,67,10.81,10.81,0,0,1,24.47,61.35Z" transform="translate(-0.34 -0.74)"/></svg>