<?xml version="1.0" encoding="utf-8"?>
<!-- Generator: Adobe Illustrator 24.0.1, SVG Export Plug-In . SVG Version: 6.00 Build 0)  -->
<svg version="1.1" id="Camada_1" xmlns="http://www.w3.org/2000/svg" xmlns:xlink="http://www.w3.org/1999/xlink" x="0px" y="0px"
	 viewBox="0 0 36.8 36.8" style="enable-background:new 0 0 36.8 36.8;" xml:space="preserve">
<style type="text/css">
	.st0{fill:#282828;}
</style>
<title>Linkedinblack</title>
<g id="linkedin">
	<path class="st0" d="M29.8,0H7C3.1,0,0,3.1,0,7v22.8c0,3.9,3.1,7,7,7h22.8c3.9,0,7-3.1,7-7V7C36.8,3.1,33.7,0,29.8,0z M11.6,30.4
		H6.2V14.2h5.4V30.4z M9.4,12.1c-0.2,0-0.3,0-0.5,0c-1.6,0.1-3-1.1-3.1-2.7c0-0.1,0-0.2,0-0.2c0-1.6,1.4-2.9,3-2.8h0.1
		c1.6-0.1,3,1,3.1,2.6C12.1,10.6,10.9,12,9.4,12.1z M31,29.8c0,0.2-0.3,0.6-0.5,0.6h-5c0-0.5-0.1-0.9-0.1-1.3c0-2.8,0-5.5-0.1-8.3
		c-0.1-1.9-1-2.7-2.7-2.6c-1.5,0.1-2.7,1.4-2.6,2.9v9.3h-5.5V14.2H20v1.6c0.9-0.7,1.9-1.3,3-1.7c3.8-1,7.4,0.7,7.9,5.3
		C31.2,22.8,31,26.3,31,29.8z"/>
</g>
</svg>
