<svg id="Camada_1" data-name="Camada 1" xmlns="http://www.w3.org/2000/svg" viewBox="0 0 36.82 36.8"><defs><style>.cls-1{fill:#f5f5f7;}</style></defs><title>Linkedin</title><g id="linkedin"><path class="cls-1" d="M28.21.59H9.79a9.2,9.2,0,0,0-9.2,9.2v18.4a9.2,9.2,0,0,0,9.2,9.2H28.21a9.2,9.2,0,0,0,9.2-9.2V9.79A9.2,9.2,0,0,0,28.21.59ZM12.19,31H6.74V14.8h5.45ZM9.47,12.67a2.87,2.87,0,0,1-3.11-2.9A2.92,2.92,0,0,1,9.47,7a2.87,2.87,0,1,1,0,5.72ZM31.62,30.41c0,.21-.34.6-.52.6-1.63,0-3.25,0-5,0,0-.48-.07-.89-.07-1.31,0-2.77,0-5.51-.09-8.26-.07-1.87-1-2.72-2.72-2.65a2.79,2.79,0,0,0-2.66,2.88V31H15.12V14.82h5.45v1.56a13,13,0,0,1,2.95-1.74c3.78-1,7.44.69,7.92,5.24C31.78,23.36,31.6,26.89,31.62,30.41Z" transform="translate(-0.59 -0.59)"/></g></svg>