<svg id="Camada_1" data-name="Camada 1" xmlns="http://www.w3.org/2000/svg" viewBox="0 0 184 82.42"><defs><style>.cls-1{fill:#f8faff;}</style></defs><title>logoGama</title><g id="Gama"><g id="Logo_2" data-name="Logo 2"><path id="G" class="cls-1" d="M31.19,57.36A34,34,0,0,1,19,55.27a27.55,27.55,0,0,1-9.4-5.88,25.58,25.58,0,0,1-6-8.93A29.45,29.45,0,0,1,1.47,29.29a27.53,27.53,0,0,1,2.21-11.1A26.07,26.07,0,0,1,10,9.34a28.9,28.9,0,0,1,9.68-5.88A34.46,34.46,0,0,1,31.83,1.37a32.59,32.59,0,0,1,8.8,1.16A31.13,31.13,0,0,1,48.14,5.7a23.82,23.82,0,0,1,5.7,4.64l-8.27,8.43a23.2,23.2,0,0,0-4.14-3.09,21.14,21.14,0,0,0-4.54-2A17.5,17.5,0,0,0,31.75,13a16.35,16.35,0,0,0-6.46,1.24,15.84,15.84,0,0,0-5.14,3.44,15.44,15.44,0,0,0-3.42,5.18,17.15,17.15,0,0,0-1.2,6.46,16.48,16.48,0,0,0,1.28,6.49A16.08,16.08,0,0,0,20.35,41a16.56,16.56,0,0,0,5.34,3.48,17.21,17.21,0,0,0,6.63,1.28A14.3,14.3,0,0,0,37,45a12.69,12.69,0,0,0,3.81-2.09,10.19,10.19,0,0,0,2.57-3.13,8.26,8.26,0,0,0,1-3.91v-2l1.77,2.63H30.63V26.19H57.06a22.06,22.06,0,0,1,.24,2.32c.05,1,.09,1.94.12,2.87s0,1.62,0,2.08a23.19,23.19,0,0,1-2,9.63A22.38,22.38,0,0,1,50,50.63a25.63,25.63,0,0,1-8.36,4.95A29.8,29.8,0,0,1,31.19,57.36Z" transform="translate(-1.47 -1.37)"/><rect class="cls-1" y="69.2" width="55.99" height="13.22"/></g><path class="cls-1" d="M65.63,57.36l13.69-34.6h7.12L100,57.36h-8.5L85,39.81c-.26-.69-.53-1.43-.79-2.22s-.53-1.61-.79-2.45l-.77-2.47c-.24-.81-.45-1.56-.61-2.25l1.48-.05c-.2.82-.42,1.63-.67,2.42s-.49,1.57-.74,2.35-.52,1.55-.81,2.32-.58,1.58-.85,2.4l-6.52,17.5Zm6.52-6.63,2.62-6.32H90.69l2.57,6.32Z" transform="translate(-1.47 -1.37)"/><path class="cls-1" d="M108.2,57.36V22.76h7.51l12.61,20.51-5.39-.05,12.75-20.46h7.22v34.6h-8.16V46.58c0-3,.08-5.63.22-8s.41-4.72.77-7.06l.94,2.57L127.08,49h-3.26l-9.39-14.78.94-2.66c.36,2.2.61,4.47.76,6.79s.22,5.09.22,8.28V57.36Z" transform="translate(-1.47 -1.37)"/><path class="cls-1" d="M151.07,57.36l13.69-34.6h7.12l13.59,34.6H177l-6.53-17.55c-.26-.69-.52-1.43-.79-2.22l-.79-2.45c-.26-.84-.52-1.67-.76-2.47s-.46-1.56-.62-2.25l1.48-.05c-.2.82-.42,1.63-.67,2.42s-.49,1.57-.74,2.35-.52,1.55-.81,2.32-.58,1.58-.84,2.4l-6.53,17.5Zm6.52-6.63,2.62-6.32h15.92l2.57,6.32Z" transform="translate(-1.47 -1.37)"/></g></svg>