<svg id="Camada_1" data-name="Camada 1" xmlns="http://www.w3.org/2000/svg" viewBox="0 0 67 98.63"><defs><style>.cls-1{fill:#f8faff;}</style></defs><title>Logo</title><g id="Logo_2" data-name="Logo 2"><path id="G" class="cls-1" d="M52.07,67.68a40.71,40.71,0,0,1-14.61-2.49,32.94,32.94,0,0,1-11.25-7A30.66,30.66,0,0,1,19,47.46a35.12,35.12,0,0,1-2.5-13.37,32.9,32.9,0,0,1,2.64-13.28,31.43,31.43,0,0,1,7.55-10.59,34.81,34.81,0,0,1,11.58-7A41.43,41.43,0,0,1,52.84.68,39,39,0,0,1,63.36,2.07a36.9,36.9,0,0,1,9,3.8,28.42,28.42,0,0,1,6.82,5.55l-9.9,10.09a28.28,28.28,0,0,0-5-3.71,25.76,25.76,0,0,0-5.43-2.35,20.83,20.83,0,0,0-6.15-.89A19.67,19.67,0,0,0,45,16.05a19.13,19.13,0,0,0-6.15,4.11,18.66,18.66,0,0,0-4.09,6.2,20.45,20.45,0,0,0-1.44,7.73,19.66,19.66,0,0,0,1.54,7.77,19,19,0,0,0,4.23,6.25,19.87,19.87,0,0,0,6.39,4.17,20.74,20.74,0,0,0,7.93,1.52A16.87,16.87,0,0,0,59,52.88a14.93,14.93,0,0,0,4.56-2.5,12.24,12.24,0,0,0,3.08-3.75A9.81,9.81,0,0,0,67.83,42V39.55L70,42.7H51.39V30.39H83a23.19,23.19,0,0,1,.29,2.78c.06,1.17.11,2.31.14,3.42s0,1.94,0,2.5a27.72,27.72,0,0,1-2.35,11.52,26.83,26.83,0,0,1-6.59,9,30.7,30.7,0,0,1-10,5.93A36,36,0,0,1,52.07,67.68Z" transform="translate(-16.5 -0.68)"/><rect class="cls-1" y="82.82" width="67" height="15.82"/></g></svg>